<svg width="45" height="45" viewBox="0 0 45 45" fill="none" xmlns="http://www.w3.org/2000/svg">
<path d="M5.73408 5.73443C-3.32525 14.7937 -0.119087 22.1416 4.89059 24.4021C11.7534 27.4999 18.1636 24.6292 21.021 27.4867C21.021 27.4867 34.3898 41.6716 36.2101 43.492C38.2213 45.5024 41.4811 45.5024 43.4916 43.492C45.5027 41.4815 45.5027 38.2209 43.4916 36.2104C41.6713 34.3893 27.4863 21.0212 27.4863 21.0212C24.6289 18.1632 27.5003 11.7538 24.4025 4.89015C22.1419 -0.118732 14.7933 -3.32481 5.73408 5.73443ZM41.2163 38.4851C41.971 39.2398 41.971 40.4627 41.2163 41.2168C40.4623 41.9715 39.2394 41.9715 38.4854 41.2168C37.7307 40.4627 37.7307 39.2398 38.4854 38.4851C39.2395 37.7311 40.4624 37.7311 41.2163 38.4851ZM17.5983 4.53595C19.3209 4.85394 20.0762 6.16422 20.3215 6.71274C21.4914 9.33258 21.4641 11.8483 21.2698 13.4045C21.1419 14.4317 20.5158 15.3241 19.8841 15.1976C19.4124 15.1032 18.8729 14.4402 18.2413 15.0718C17.6088 15.7036 16.6563 16.6567 16.6563 16.6567C16.6563 16.6567 15.7039 17.6092 15.0715 18.2409C14.4398 18.8734 15.1037 19.4121 15.1981 19.8845C15.3244 20.5162 14.4315 21.1424 13.4042 21.2709C11.8487 21.4637 9.33232 21.4917 6.71318 20.3219C6.16457 20.0766 4.85368 19.3213 4.53507 17.5986C4.10459 15.2674 5.69365 12.0949 8.89418 8.89445C12.0945 5.69391 15.267 4.10485 17.5983 4.53595Z" fill="#6B5917"/>
</svg>
