<svg width="96" height="96" viewBox="0 0 96 96" fill="none" xmlns="http://www.w3.org/2000/svg">
<g clip-path="url(#clip0_50_4)">
<path d="M22.9782 23.8716C26.3139 20.4174 30.5548 17.781 32.5098 19.6689L48.5246 35.1342C50.9382 37.465 53.831 42.1882 56.6295 46.7551C59.2329 51.0064 61.9306 55.4053 63.9322 57.3382L72.876 65.9751C73.1183 66.2091 73.2577 66.5298 73.2636 66.8665C73.2694 67.2033 73.1413 67.5286 72.9073 67.7709C72.6733 68.0132 72.3527 68.1526 72.0159 68.1585C71.6792 68.1644 71.3538 68.0362 71.1115 67.8022L62.1705 59.168C59.9368 57.011 57.2781 52.678 54.4666 48.0844C51.7513 43.6527 48.9453 39.0698 46.7638 36.9631L30.8239 21.5701C30.206 21.5207 27.7837 22.5501 24.8053 25.6343C21.8269 28.7185 20.8827 31.1753 20.9537 31.7911L36.8944 47.1849C39.076 49.2916 43.754 51.9359 48.2778 54.4949C52.9604 57.1418 57.3908 59.6493 59.6244 61.8064L68.5682 70.4432C68.8105 70.6772 68.9499 70.9979 68.9558 71.3347C68.9617 71.6714 68.8335 71.9967 68.5995 72.239C68.3656 72.4813 68.0449 72.6207 67.7082 72.6266C67.3714 72.6325 67.0461 72.5044 66.8038 72.2704L57.8591 63.6326C55.8575 61.6997 51.3681 59.1617 47.0275 56.7037C42.3649 54.0673 37.5482 51.3454 35.13 49.0102L19.1171 33.5467C17.1557 31.6561 19.6434 27.3249 22.9782 23.8716Z" fill="#6B5917"/>
<path d="M33.9611 28.5596C34.0168 28.5021 34.0778 28.4499 34.1434 28.4038C37.6816 25.9062 39.4283 26.3517 40.2697 27.1642C40.5225 27.3873 40.6763 27.7017 40.6974 28.0382C40.7184 28.3747 40.6049 28.7058 40.3818 28.9586C40.1588 29.2114 39.8444 29.3652 39.5079 29.3863C39.1714 29.4073 38.8403 29.2938 38.5875 29.0707C37.4833 29.2622 36.452 29.7506 35.6042 30.4835C35.3459 30.6672 35.0283 30.7477 34.7137 30.7092C34.3991 30.6706 34.1103 30.5159 33.904 30.2753C33.6977 30.0347 33.5888 29.7257 33.5987 29.4089C33.6086 29.0921 33.7366 28.7905 33.9576 28.5632L33.9611 28.5596Z" fill="#6B5917"/>
<path d="M28.043 34.6878C28.2625 34.4594 28.5595 34.3213 28.8757 34.3006C29.1918 34.2798 29.5043 34.3781 29.7517 34.5759C29.9992 34.7737 30.1638 35.0569 30.2132 35.3699C30.2626 35.6828 30.1932 36.0029 30.0187 36.2673C29.3157 37.1397 28.8638 38.1872 28.7118 39.2972C28.9435 39.5421 29.0685 39.869 29.0592 40.2061C29.05 40.5431 28.9072 40.8626 28.6623 41.0944C28.4174 41.3262 28.0905 41.4511 27.7535 41.4418C27.4164 41.4326 27.0969 41.2898 26.8651 41.0449C26.0237 40.2324 25.5158 38.506 27.8892 34.88C27.9342 34.8112 27.9857 34.7469 28.043 34.6878Z" fill="#6B5917"/>
<path d="M38.1949 32.8778C38.2475 32.8232 38.3049 32.7734 38.3665 32.7292C41.1916 30.6905 43.4251 30.2114 44.6456 31.3901C44.8979 31.6136 45.0511 31.9283 45.0715 32.2648C45.0918 32.6013 44.9777 32.9322 44.7541 33.1845C44.5306 33.4369 44.216 33.5901 43.8794 33.6104C43.5429 33.6308 43.2121 33.5166 42.9597 33.2931C41.8068 33.5041 40.732 34.0221 39.8486 34.7925C39.5913 34.9776 39.2742 35.0599 38.9594 35.0231C38.6446 34.9863 38.3549 34.8331 38.1473 34.5937C37.9397 34.3543 37.8291 34.0459 37.8372 33.729C37.8453 33.4122 37.9717 33.1099 38.1914 32.8814L38.1949 32.8778Z" fill="#6B5917"/>
<path d="M32.5235 38.7689C32.7446 38.5411 33.0431 38.4044 33.36 38.3857C33.677 38.367 33.9894 38.4677 34.2358 38.668C34.4822 38.8683 34.6447 39.1535 34.6912 39.4676C34.7376 39.7817 34.6647 40.1018 34.4869 40.3649C33.7426 41.2709 33.2579 42.3617 33.0843 43.5213C33.1992 43.6423 33.2892 43.7849 33.349 43.9407C33.4089 44.0965 33.4374 44.2627 33.4331 44.4295C33.4287 44.5964 33.3915 44.7608 33.3237 44.9133C33.2558 45.0658 33.1585 45.2035 33.0375 45.3184C32.9164 45.4333 32.7738 45.5233 32.618 45.5832C32.4622 45.643 32.2961 45.6715 32.1293 45.6672C31.9624 45.6629 31.7979 45.6257 31.6454 45.5578C31.4929 45.49 31.3553 45.3927 31.2404 45.2716C30.0116 44.085 30.4169 41.8371 32.3828 38.9421C32.4245 38.8804 32.4716 38.8224 32.5235 38.7689Z" fill="#6B5917"/>
<path d="M29.766 30.4265C30.5643 29.5999 31.5898 29.0285 32.7128 28.7847C33.8358 28.5409 35.0059 28.6356 36.0751 29.0567C37.1443 29.4779 38.0645 30.2067 38.7195 31.1509C39.3746 32.0951 39.7349 33.2123 39.7549 34.3613C39.775 35.5103 39.4539 36.6394 38.8322 37.6059C38.2105 38.5724 37.3162 39.3328 36.2624 39.7911C35.2085 40.2493 34.0425 40.3847 32.9117 40.1802C31.7809 39.9757 30.7361 39.4405 29.9094 38.6423C28.8025 37.571 28.1657 36.1043 28.1388 34.5641C28.1119 33.0238 28.6971 31.5358 29.766 30.4265ZM36.298 36.7344C36.7473 36.2691 37.0485 35.6811 37.1636 35.0446C37.2787 34.4081 37.2025 33.7519 36.9446 33.1587C36.6867 32.5656 36.2587 32.0622 35.7147 31.7123C35.1707 31.3624 34.5352 31.1816 33.8885 31.1929C33.2418 31.2042 32.613 31.407 32.0816 31.7757C31.5501 32.1444 31.1399 32.6623 30.9029 33.2641C30.6658 33.8659 30.6125 34.5245 30.7498 35.1566C30.887 35.7886 31.2086 36.3658 31.6739 36.8151C32.2982 37.4167 33.1357 37.746 34.0026 37.7309C34.8695 37.7158 35.695 37.3574 36.298 36.7344Z" fill="#6B5917"/>
<path d="M68.7371 68.0799C70.8747 65.8664 73.3903 65.1901 74.7187 66.4729C76.047 67.7556 75.4599 70.2942 73.3223 72.5078C71.1847 74.7213 68.6672 75.3994 67.338 74.1158C66.0088 72.8322 66.5986 70.2944 68.7371 68.0799ZM72.8819 68.3749C72.0019 68.6746 71.206 69.1798 70.5602 69.8485C69.9145 70.5172 69.4374 71.3302 69.1686 72.2201C70.0489 71.9209 70.845 71.4159 71.4908 70.7472C72.1367 70.0784 72.6135 69.2651 72.8819 68.3749Z" fill="#6B5917"/>
<path d="M65.9963 65.4261C66.8705 64.4713 67.9717 63.7529 69.1978 63.3376C69.5175 63.2534 69.8574 63.2971 70.1454 63.4596C70.4333 63.622 70.6465 63.8903 70.7398 64.2075C70.833 64.5247 70.7989 64.8657 70.6447 65.1582C70.4905 65.4506 70.2284 65.6713 69.914 65.7735C68.3463 66.4608 67.1126 67.7384 66.4803 69.3291C66.3892 69.6469 66.1777 69.9166 65.8908 70.0809C65.604 70.2453 65.2643 70.2912 64.9441 70.2091C64.6238 70.127 64.3483 69.9232 64.1759 69.6411C64.0035 69.359 63.9479 69.0208 64.0209 68.6984C64.3932 67.4586 65.0726 66.333 65.9963 65.4261Z" fill="#6B5917"/>
</g>
<defs>
<clipPath id="clip0_50_4">
<rect width="70" height="70" fill="white" transform="translate(95.9615 61) rotate(150)"/>
</clipPath>
</defs>
</svg>
